<svg xmlns="http://www.w3.org/2000/svg" xmlns:xlink="http://www.w3.org/1999/xlink" width="580" height="101" viewBox="0 0 580 101">
    <defs>
        <path id="a" d="M.855.899h70.967V73.66H.855z"/>
    </defs>
    <g fill="none" fill-rule="evenodd">
        <path fill="#3CA0D3" d="M97.04 42.173c3.77 0 5.847 1.949 5.847 6.625 0 12.344-11.433 12.344-17.15 11.045.39-9.227 3.508-17.67 11.303-17.67m29.911 30.237c-6.524 3.834-17.284 10.857-29.26 10.431-9.35-.334-11.565-6.886-11.565-13.384 16.892 4.549 39.11-1.69 39.11-20.14 0-14.811-11.305-23.776-31.574-23.776-22.608 0-38.59 11.954-38.59 37.679 0 27.287 16.501 37.422 39.11 37.422 13.47 0 25.05-2.592 32.188-7.201.152-4.937.39-12.971.581-21.031"/>
        <path fill="#81C627" d="M339.249 98.302c2.307-2.4 5.219-5.875 8.512-10.01-.279-9.129-.588-21.797-.588-36.895 0-15.46-7.926-25.857-25.077-25.857-13.641 0-21.827 6.107-25.205 14.424.129-3.639.259-7.796.388-12.084h-30.273c.131 5.716.131 11.302.131 16.11 0 25.857-.91 54.312-.91 54.312h31.182c-.389-8.576-.909-24.297-.909-35.082 0-9.355 1.56-18.319 10.005-18.319 8.314 0 10.654 7.277 10.654 18.32 0 11.175-.52 26.895-.649 35.081h22.739zM183.86 98.302c4.405-4.635 10.94-13.035 18.125-22.463l-38.688 1.154.26-69.123h-30.664s.65 25.337.65 45.086c0 14.034-1.039 45.346-1.039 45.346h51.355z"/>
        <path fill="#3CA0D3" d="M51.355 98.302c4.407-4.635 10.94-13.035 18.126-22.463l-38.688 1.154.26-69.123H.39s.65 25.337.65 45.086C1.04 66.99 0 98.302 0 98.302h51.355z"/>
        <path fill="#81C627" d="M244.501 27.947c-3.061 5.146-7.746 11.458-12.954 18.694-5.208-7.236-9.893-13.548-12.954-18.694h-31.995c2.988 5.067 14.161 20.01 25.856 34.95l3.529 4.49c-9.997 13.17-19.484 25.716-24.868 30.982h32.136c.259-.262 5.301-7.535 15.955-20.918l11.434-14.553c11.693-14.941 22.868-29.951 25.855-35.017l-31.994.066z"/>
        <path fill="#3CA0D3" d="M451.57 100.005c-5.773 0-10.408-4.55-10.408-10.323 0-5.692 4.635-10.325 10.407-10.325 5.691 0 10.326 4.633 10.326 10.325a10.287 10.287 0 0 1-10.326 10.323"/>
        <g transform="translate(508 24.642)">
            <mask id="b" fill="#fff">
                <use xlink:href="#a"/>
            </mask>
            <path fill="#3CA0D3" d="M71.822 6.37L55.944 32.862c-3.508-1.82-9.095-4.028-14.422-3.898-6.236 0-10.784 2.6-10.784 15.333 0 9.354.521 21.178 1.17 29.364H.854s1.04-28.456 1.04-54.312c0-4.808-.13-10.395-.26-16.11h28.454c-.13 4.287.13 15.589 0 19.228C32.04 16.23 37.884.899 51.397.899c2.99 0 15.71 1.699 20.425 5.47" mask="url(#b)"/>
        </g>
        <path fill="#3CA0D3" d="M493.888 29.216c0-7.333 1.375-11.915 8.135-11.915 3.22 0 6.066.771 8.522 1.825 2.86-3.276 6.32-7.599 10.117-12.498l.15-.44C516.574 2.751 508.667 0 497.667 0c-17.528 0-30.245 8.709-30.245 28.07 0 2.406.23 5.042.46 8.25l-8.365 9.052-.458 7.904h9.852v3.321c0 11.344-.801 41.705-.801 41.705h27.383c-.23-12.832-.688-30.705-1.033-45.026h17.644l2.29-17.071h-20.391c-.115-3.666-.115-6.188-.115-6.989"/>
        <path fill="#81C627" d="M346.308 98.605h34.5c2.41-3.059 6.329-7.959 11.85-14.56 5.52 6.601 9.439 11.501 11.849 14.56h34.503c-6.315-5.98-17.683-20.115-29.494-34.662 12.302-14.738 24.129-29.476 28.772-36.107h-34.145c-3.236 4.468-7.192 9.501-11.485 15.06-4.293-5.559-8.246-10.592-11.485-15.06h-34.145c4.642 6.631 16.47 21.37 28.769 36.107-11.806 14.547-23.175 28.682-29.49 34.662"/>
    </g>
</svg>
